<svg width="22" height="22" viewBox="0 0 22 22" fill="none" xmlns="http://www.w3.org/2000/svg">
<path d="M15.2969 3.4375C13.5223 3.4375 11.9685 4.20062 11 5.49055C10.0315 4.20062 8.47773 3.4375 6.70312 3.4375C5.29051 3.43909 3.9362 4.00096 2.93733 4.99983C1.93846 5.9987 1.37659 7.35301 1.375 8.76562C1.375 14.7812 10.2945 19.6505 10.6743 19.8516C10.7744 19.9054 10.8863 19.9336 11 19.9336C11.1137 19.9336 11.2256 19.9054 11.3257 19.8516C11.7055 19.6505 20.625 14.7812 20.625 8.76562C20.6234 7.35301 20.0615 5.9987 19.0627 4.99983C18.0638 4.00096 16.7095 3.43909 15.2969 3.4375ZM11 18.4594C9.43078 17.545 2.75 13.3796 2.75 8.76562C2.75136 7.71761 3.16829 6.71291 3.90935 5.97185C4.65041 5.23079 5.65511 4.81386 6.70312 4.8125C8.37461 4.8125 9.77797 5.70281 10.3641 7.13281C10.4159 7.25891 10.504 7.36676 10.6172 7.44266C10.7304 7.51856 10.8637 7.55909 11 7.55909C11.1363 7.55909 11.2696 7.51856 11.3828 7.44266C11.496 7.36676 11.5841 7.25891 11.6359 7.13281C12.222 5.70023 13.6254 4.8125 15.2969 4.8125C16.3449 4.81386 17.3496 5.23079 18.0907 5.97185C18.8317 6.71291 19.2486 7.71761 19.25 8.76562C19.25 13.3727 12.5675 17.5441 11 18.4594Z" fill="black"/>
</svg>
